<svg id="Capa_1" data-name="Capa 1" xmlns="http://www.w3.org/2000/svg" viewBox="0 0 370.84 412.43"><defs><style>.cls-1{fill:#1966be;}</style></defs><path class="cls-1" d="M154.14,273.9a6.21,6.21,0,0,0,.18-2.36q0-97.29,0-194.57c0-3.94-.38-3.62,3.54-3.63h32.76c2.74,0,2.74,0,2.74,2.82q0,111.51,0,223c0,10.56,0,21.12-.11,31.68,0,3.78-.18,7.56-.21,11.33a6.8,6.8,0,0,1-.06.9c-.08.52-.4.74-.89.57a9.73,9.73,0,0,1-1.32-.57A300.07,300.07,0,0,1,146.47,316a195.45,195.45,0,0,1-26.75-24A149.49,149.49,0,0,1,86.8,236.13a157.48,157.48,0,0,1-6.64-31.64C79.27,196,78.6,187.42,78,178.86q-.83-11.66-1.44-23.33-.61-12-1.08-24.08-.39-10.33-.73-20.67c-.26-8-.48-16.07-.71-24.1q-.36-12.41-.73-24.81-.33-10.8-.72-21.58c-.1-2.93-.28-5.87-.31-8.81,0-2,0-2,1.79-2.53A438.9,438.9,0,0,1,125.23,16.4c9.27-1.69,18.58-3.08,27.94-4.11,6.37-.7,12.77-1.2,19.17-1.63,11.51-.78,23-.82,34.53-.55,8.21.2,16.41.81,24.58,1.62q14.7,1.45,29.22,4A377.71,377.71,0,0,1,317,30.5a403.71,403.71,0,0,1,39.21,15.79c6.25,2.91,12.48,5.87,18.6,9.07a3,3,0,0,1,1.87,3.07c-.07,7.19-.12,14.4,0,21.59.4,24.24.25,48.48.14,72.71,0,8.82,0,17.64-.32,26.45a292,292,0,0,1-3,33.12,257,257,0,0,1-11.78,47.43,230.19,230.19,0,0,1-35.64,65.86c-4.18,5.34-8.65,10.44-13.31,15.36A222.69,222.69,0,0,1,277,371c-17.41,12-35.51,22.85-53.62,33.73-9.46,5.68-19,11.27-28.33,17.14a2.36,2.36,0,0,1-2.8.11c-19.44-11.56-39.34-22.32-58.63-34.13a351.32,351.32,0,0,1-35-24c-5.36-4.25-10.53-8.71-15.56-13.36a227.6,227.6,0,0,1-27.43-30.44,216.16,216.16,0,0,1-18.69-29.65,231.59,231.59,0,0,1-23-69.2c-1.54-9.05-2.58-18.16-3.24-27.32-.57-7.89-1.09-15.78-1.46-23.69q-.39-8.18-.71-16.35c-.32-8.21-.5-16.43-.76-24.64-.16-5.28-.08-10.56-.33-15.83-.29-6.23-.1-12.48-.37-18.71-.24-5.39,0-10.8-.36-16.18s0-10.92-.55-16.36A2.93,2.93,0,0,1,7.86,59C19.11,52.52,30.31,46,41.53,39.53c1.92-1.1,2.08-1,2.09,1.15,0,2.7,0,5.4,0,8.1-.15,8.34.36,16.67.51,25,.07,4,.12,8,.28,12,.24,6.36.19,12.72.43,19.07.18,4.92.17,9.83.3,14.75.23,8.93.46,17.86.74,26.79.19,6.12.37,12.23.71,18.34.43,7.72.68,15.45,1.28,23.16.35,4.61.52,9.22.88,13.82a201.3,201.3,0,0,0,3,22.28,176.35,176.35,0,0,0,16.85,48.62A179.86,179.86,0,0,0,90.13,304.9a202.41,202.41,0,0,0,17.6,18.5,235.59,235.59,0,0,0,25.42,20.33c11.94,8.38,24.35,16,36.78,23.65q9.44,5.78,18.77,11.72a3.37,3.37,0,0,0,3.78.24c13.56-6.7,27-13.7,39.86-21.59A282.19,282.19,0,0,0,269.8,330.7a201,201,0,0,0,44.49-54.05,190.08,190.08,0,0,0,18.93-49,233,233,0,0,0,5.18-30.84c.77-7.76,1.2-15.54,1.5-23.33.21-5.34.11-10.68.35-16,.38-8.82.32-17.64.16-26.45-.26-14.46-.2-28.91-.37-43.37,0-2.69-.23-5.39-.16-8.09a2.17,2.17,0,0,0-1.59-2.28,397,397,0,0,0-40.72-14.87,361.62,361.62,0,0,0-35.25-8.8c-9.94-2-19.95-3.53-30-4.6-8.29-.89-16.59-1.49-24.92-1.87-8.88-.4-17.76-.41-26.63-.14q-15.63.48-31.2,2.32-17.52,2.05-34.8,5.56c-4,.81-3.41.38-3.41,4,0,13.56-.11,27.12,0,40.68.1,10.13.43,20.27.76,30.4.24,7.13.41,14.26.71,21.39.27,6.53.42,13.06.9,19.58.24,3.23.29,6.47.49,9.71.56,9.57,1.23,19.14,3.24,28.56a122.29,122.29,0,0,0,25.95,53.55c2.92,3.51,6,6.82,9.29,10A3.74,3.74,0,0,0,154.14,273.9Z" transform="translate(-6.12 -9.96)"/><path class="cls-1" d="M218.7,76c4,0,8-.14,12.06,0A133.3,133.3,0,0,1,267,82a74.77,74.77,0,0,1,24.89,13.38A62.9,62.9,0,0,1,314,132.1a82,82,0,0,1,1.68,18.41c-.37,15.07-4.25,29.15-12.53,41.85a75.39,75.39,0,0,1-25.78,24.12,100.13,100.13,0,0,1-39,12.83,160.33,160.33,0,0,1-18.84,1.09H206.36l-1.62,0a1.23,1.23,0,0,1-1.32-1.37q0-.72,0-1.44V204.89c0-.3,0-.6,0-.9,0-1.83.24-2,2.13-2.05,6.77,0,13.56.13,20.33-.1,9.7-.33,19.22-1.83,28.22-5.72,7.4-3.2,13.81-7.7,18.57-14.32a42.49,42.49,0,0,0,7.16-16.94,63.35,63.35,0,0,0-.39-28c-2.85-11.18-9.48-19.48-19.45-25.19a61.76,61.76,0,0,0-22.29-7.2,88.38,88.38,0,0,0-12.91-.81c-5.94,0-11.88,0-17.81,0-.48,0-1,0-1.44,0-2.07,0-2.23-.19-2.23-2.3,0-7.74,0-15.48,0-23.22,0-.36,0-.72,0-1.08a1.05,1.05,0,0,1,1.14-1.11q.72,0,1.44,0c4.26,0,8.52,0,12.78,0Z" transform="translate(-6.12 -9.96)"/></svg>